<svg preserveAspectRatio="none" width="100%" height="100%" overflow="visible" style="display: block;" viewBox="0 0 34.3262 31.0754" fill="none" xmlns="http://www.w3.org/2000/svg">
<g id="noun-bamboo-5612395 1">
<g id="Group">
<path id="Vector" d="M3.20463 16.2725C0.0768965 19.4017 -0.897337 22.9676 0.88792 24.7529C1.48775 25.3512 2.28787 25.6401 3.20615 25.6401C5.01938 25.6401 7.29105 24.5121 9.36839 22.4362C12.4961 19.3085 13.4704 15.741 11.6866 13.9526C9.8951 12.169 6.33085 13.1431 3.20463 16.2725Z" fill="var(--fill-0, #23A045)"/>
<path id="Vector_2" d="M33.4394 6.18399C31.6479 4.40186 28.0836 5.37448 24.9574 8.50373C21.8296 11.6331 20.8554 15.1989 22.6407 16.9842C23.2405 17.5824 24.0406 17.8715 24.9589 17.8715C26.7721 17.8715 29.0438 16.7434 31.1211 14.6676C34.2489 11.5399 35.2231 7.97238 33.4394 6.18399Z" fill="var(--fill-0, #23A045)"/>
</g>
<path id="Vector_3" d="M24.1706 4.6613V5.01864C23.689 5.42263 23.2229 5.84218 22.7567 6.30829C20.2707 8.79428 18.8722 11.5134 18.6548 13.9839H15.3142C15.0189 13.1604 14.5373 12.399 13.8847 11.7465C12.8436 10.7209 11.5851 10.146 10.1867 9.99071V4.6613C10.1867 2.09755 12.2687 0 14.848 0H19.5093C22.073 0 24.1706 2.09755 24.1706 4.6613Z" fill="var(--fill-0, #23A045)"/>
<path id="Vector_4" d="M24.1706 20.9292V26.4141C24.1706 28.9777 22.073 31.0754 19.5093 31.0754H14.848C12.2687 31.0754 10.1867 28.9777 10.1867 26.4141V25.8702C10.6529 25.4973 11.119 25.0779 11.5696 24.6272C14.0089 22.1878 15.4074 19.4998 15.656 17.0604H19.0587C19.3539 17.8373 19.8046 18.552 20.4416 19.1735C21.4516 20.1835 22.7101 20.7739 24.1706 20.9292Z" fill="var(--fill-0, #23A045)"/>
</g>
</svg>
