<svg preserveAspectRatio="none" width="100%" height="100%" overflow="visible" style="display: block;" viewBox="0 0 249 249" fill="none" xmlns="http://www.w3.org/2000/svg">
<g id="Group of Custom Shape Buttons">
<path d="M66.0322 187.966C81.5351 202.265 102.247 211 125 211C147.498 211 168.001 202.46 183.445 188.445L209.998 214.998C187.696 236.075 157.608 249 124.5 249C91.3918 249 61.303 236.076 39.001 214.998L66.0322 187.966Z" fill="var(--fill-0, #4A4A50)"/>
<path d="M60.5537 65.5537C46.5389 80.9979 38 101.502 38 124C38 146.418 46.4795 166.854 60.4053 182.279L33.3643 209.32C12.6638 187.088 0 157.273 0 124.5C0 91.392 12.9237 61.3029 34.001 39.001L60.5537 65.5537Z" fill="var(--fill-0, #4A4A50)"/>
<path d="M214.998 39.001C236.076 61.303 249 91.3918 249 124.5C249 157.274 236.336 187.088 215.635 209.32L189.117 182.803C203.326 167.318 212 146.672 212 124C212 101.247 203.265 80.5351 188.966 65.0322L214.998 39.001Z" fill="var(--fill-0, #4A4A50)"/>
<path d="M177.78 182.78C163.79 195.351 145.289 203 125 203C104.456 203 85.7451 195.158 71.6943 182.305L124.5 129.5L177.78 182.78Z" fill="var(--fill-0, #4A4A50)"/>
<path d="M183.305 70.6943C196.158 84.7451 204 103.456 204 124C204 144.463 196.219 163.109 183.455 177.141L130.157 123.843L183.305 70.6943Z" fill="var(--fill-0, #4A4A50)"/>
<path d="M118.843 123.843L66.0703 176.613C53.5887 162.643 46 144.208 46 124C46 103.711 53.6482 85.209 66.2188 71.2188L118.843 123.843Z" fill="var(--fill-0, #4A4A50)"/>
<path d="M125 45C145.208 45 163.643 52.5887 177.613 65.0703L124.5 118.186L71.8584 65.5439C85.8905 52.7801 104.537 45 125 45Z" fill="var(--fill-0, #4A4A50)"/>
<path d="M124.5 0C157.273 0 187.088 12.6638 209.32 33.3643L183.279 59.4053C167.854 45.4795 147.418 37 125 37C102.328 37 81.681 45.673 66.1963 59.8818L39.6787 33.3643C61.9107 12.6635 91.7265 0 124.5 0Z" fill="var(--fill-0, #4A4A50)"/>
</g>
</svg>
